<?xml version="1.0" encoding="UTF-8"?>
<svg width="15px" height="14px" viewBox="0 0 15 14" version="1.1" xmlns="http://www.w3.org/2000/svg" xmlns:xlink="http://www.w3.org/1999/xlink">
    <!-- Generator: Sketch 43.1 (39012) - http://www.bohemiancoding.com/sketch -->
    <title>SVGID_119_</title>
    <desc>Created with Sketch.</desc>
    <defs>
        <path d="M11.6666667,0.833333333 C11.6666667,0.375 11.2916667,0 10.8333333,0 L4.16666667,0 C3.70833333,0 3.33333333,0.375 3.33333333,0.833333333 L0,6.66666667 L0,12.5 C0,12.9583333 0.375,13.3333333 0.833333333,13.3333333 L14.1666667,13.3333333 C14.625,13.3333333 15,12.9583333 15,12.5 L15,6.66666667 L11.6666667,0.833333333 L11.6666667,0.833333333 Z M4.79166667,1.66666667 L10.25,1.66666667 L12.625,5.83333333 L9.58333333,5.83333333 C9.33333333,5.83333333 9.16666667,6 9.16666667,6.25 L9.16666667,6.58333333 C9.16666667,7.45833333 8.54166667,8.25 7.66666667,8.33333333 C6.66666667,8.41666667 5.83333333,7.66666667 5.83333333,6.66666667 L5.83333333,6.25 C5.83333333,6 5.66666667,5.83333333 5.41666667,5.83333333 L2.41666667,5.83333333 L4.79166667,1.66666667 L4.79166667,1.66666667 Z M12.9166667,11.6666667 L2.08333333,11.6666667 C1.83333333,11.6666667 1.66666667,11.5 1.66666667,11.25 L1.66666667,7.5 L4.29166667,7.5 C4.66666667,8.91666667 5.95833333,10 7.5,10 C9.04166667,10 10.3333333,8.91666667 10.7083333,7.5 L13.3333333,7.5 L13.3333333,11.25 C13.3333333,11.5 13.1666667,11.6666667 12.9166667,11.6666667 L12.9166667,11.6666667 L12.9166667,11.6666667 Z" id="path-1"></path>
    </defs>
    <g id="Page-1" stroke="none" stroke-width="1" fill="none" fill-rule="evenodd">
        <g id="Email-Client-Concept" transform="translate(-152.000000, -288.000000)">
            <g id="LeftBlock" transform="translate(110.000000, 99.000000)">
                <g id="MenuLeft" transform="translate(42.000000, 185.000000)">
                    <g id="Group" transform="translate(0.000000, 4.000000)">
                        <mask id="mask-2" fill="white">
                            <use xlink:href="#path-1"></use>
                        </mask>
                        <use id="SVGID_119_" fill="#D8D8D8" xlink:href="#path-1"></use>
                    </g>
                </g>
            </g>
        </g>
    </g>
</svg>