<?xml version="1.0" encoding="UTF-8"?>
<svg width="15px" height="14px" viewBox="0 0 15 14" version="1.1" xmlns="http://www.w3.org/2000/svg" xmlns:xlink="http://www.w3.org/1999/xlink">
    <!-- Generator: Sketch 43.1 (39012) - http://www.bohemiancoding.com/sketch -->
    <title>SVGID_115_</title>
    <desc>Created with Sketch.</desc>
    <defs>
        <path d="M12.5,13.3333333 L2.5,13.3333333 C2.04166667,13.3333333 1.66666667,12.9583333 1.66666667,12.5 L1.66666667,4.16666667 C1.66666667,3.70833333 2.04166667,3.33333333 2.5,3.33333333 L12.5,3.33333333 C12.9583333,3.33333333 13.3333333,3.70833333 13.3333333,4.16666667 L13.3333333,12.5 C13.3333333,12.9583333 12.9583333,13.3333333 12.5,13.3333333 L12.5,13.3333333 L12.5,13.3333333 Z M11.6666667,5 L3.33333333,5 L3.33333333,11.6666667 L11.6666667,11.6666667 L11.6666667,5 L11.6666667,5 Z M4.16666667,5 L4.16666667,0.833333333 C4.16666667,0.375 4.54166667,0 5,0 L10,0 C10.4583333,0 10.8333333,0.375 10.8333333,0.833333333 L10.8333333,5 L4.16666667,5 L4.16666667,5 Z M9.16666667,1.66666667 L5.83333333,1.66666667 L5.83333333,3.33333333 L9.16666667,3.33333333 L9.16666667,1.66666667 L9.16666667,1.66666667 Z M0,5 L0,4.16666667 C0,3.70833333 0.375,3.33333333 0.833333333,3.33333333 L14.1666667,3.33333333 C14.625,3.33333333 15,3.70833333 15,4.16666667 L15,5 L0,5 L0,5 Z M6.25,10 L5.41666667,10 C5.16666667,10 5,9.83333333 5,9.58333333 L5,7.08333333 C5,6.83333333 5.16666667,6.66666667 5.41666667,6.66666667 L6.25,6.66666667 C6.5,6.66666667 6.66666667,6.83333333 6.66666667,7.08333333 L6.66666667,9.58333333 C6.66666667,9.83333333 6.5,10 6.25,10 L6.25,10 L6.25,10 Z M9.58333333,10 L8.75,10 C8.5,10 8.33333333,9.83333333 8.33333333,9.58333333 L8.33333333,7.08333333 C8.33333333,6.83333333 8.5,6.66666667 8.75,6.66666667 L9.58333333,6.66666667 C9.83333333,6.66666667 10,6.83333333 10,7.08333333 L10,9.58333333 C10,9.83333333 9.83333333,10 9.58333333,10 L9.58333333,10 L9.58333333,10 Z" id="path-1"></path>
    </defs>
    <g id="Page-1" stroke="none" stroke-width="1" fill="none" fill-rule="evenodd">
        <g id="Email-Client-Concept" transform="translate(-152.000000, -400.000000)">
            <g id="LeftBlock" transform="translate(110.000000, 99.000000)">
                <g id="MenuLeft" transform="translate(42.000000, 185.000000)">
                    <g id="IcoTrash" transform="translate(0.000000, 116.000000)">
                        <mask id="mask-2" fill="white">
                            <use xlink:href="#path-1"></use>
                        </mask>
                        <use id="SVGID_115_" fill="#D8D8D8" xlink:href="#path-1"></use>
                    </g>
                </g>
            </g>
        </g>
    </g>
</svg>