<?xml version="1.0" encoding="UTF-8"?>
<svg width="20px" height="20px" viewBox="0 0 20 20" version="1.1" xmlns="http://www.w3.org/2000/svg" xmlns:xlink="http://www.w3.org/1999/xlink">
    <!-- Generator: Sketch 43.1 (39012) - http://www.bohemiancoding.com/sketch -->
    <title>SVGID_121_</title>
    <desc>Created with Sketch.</desc>
    <defs>
        <path d="M19.625,5.6875 L10.625,15 L5,15 L5,9.375 L14.375,0.375 C14.625,0.125 14.9375,0 15.25,0 C15.5625,0 15.875,0.125 16.125,0.375 L19.625,3.875 C20.125,4.375 20.125,5.1875 19.625,5.6875 L19.625,5.6875 L19.625,5.6875 Z M15.1875,3 L7.5,10.4375 L7.5,12.5 L9.5625,12.5 L17,4.8125 L15.1875,3 L15.1875,3 Z M18.75,20 L1.25,20 C0.5625,20 0,19.4375 0,18.75 L0,1.25 C0,0.5625 0.5625,0 1.25,0 L6.25,0 C6.9375,0 7.5,0.5625 7.5,1.25 C7.5,1.9375 6.9375,2.5 6.25,2.5 L3.125,2.5 C2.75,2.5 2.5,2.75 2.5,3.125 L2.5,16.875 C2.5,17.25 2.75,17.5 3.125,17.5 L16.875,17.5 C17.25,17.5 17.5,17.25 17.5,16.875 L17.5,13.75 C17.5,13.0625 18.0625,12.5 18.75,12.5 C19.4375,12.5 20,13.0625 20,13.75 L20,18.75 C20,19.4375 19.4375,20 18.75,20 L18.75,20 L18.75,20 Z" id="path-1"></path>
    </defs>
    <g id="Page-1" stroke="none" stroke-width="1" fill="none" fill-rule="evenodd">
        <g id="Email-Client-Concept" transform="translate(-150.000000, -221.000000)">
            <g id="LeftBlock" transform="translate(110.000000, 99.000000)">
                <g id="BtnNewMessage" transform="translate(23.000000, 110.000000)">
                    <g id="IcoCompose" transform="translate(17.000000, 12.000000)">
                        <mask id="mask-2" fill="white">
                            <use xlink:href="#path-1"></use>
                        </mask>
                        <use id="SVGID_121_" fill="#FFFFFF" xlink:href="#path-1"></use>
                    </g>
                </g>
            </g>
        </g>
    </g>
</svg>